<svg id="Layer_1" data-name="Layer 1" xmlns="http://www.w3.org/2000/svg" viewBox="0 0 242.9 50.74"><defs><style>.cls-1{fill:#ff416a;}</style></defs><path d="M2.3,43.59c0-3.8,2.05-6.2,5.55-8.55C3.7,34.44,0,31,0,24.34c0-8.55,5.35-12.9,12.65-12.9a27.49,27.49,0,0,1,10,2v19.2c0,1.55-.05,4.55-.15,6.15-.6,7.5-4.1,12-11.35,12C5.35,50.74,2.3,47.89,2.3,43.59ZM15.65,17a9.59,9.59,0,0,0-3.1-.5c-3.85,0-5.6,3.3-5.6,7.55,0,3.5.45,7.25,4.6,7.25,2.5,0,4.1-1.6,4.1-4.35Zm-4,28.4c3.35,0,4.05-3.75,4.05-7.9v-2.7c-3.65,2-6.85,4.8-6.85,7.8A2.55,2.55,0,0,0,11.7,45.44Z"/><path d="M27.25,37.54V12.19h7V37.54Z"/><path class="cls-1" d="M31,0l1.37,2.77,3,.44L33.16,5.36l.52,3L31,7,28.22,8.4l.53-3L26.54,3.21l3.05-.44Z"/><path d="M38.85,37.54V16.89l-.45-4.7h5.8l.5,3a8.87,8.87,0,0,1,7.55-3.75c5,0,8,2.8,8,8.8v17.3h-7V21.59c0-2.75-.45-4.8-3.1-4.8a4.32,4.32,0,0,0-4.35,4.5V37.54Z"/><path d="M65.75,43.59c0-3.8,2-6.2,5.55-8.55-4.15-.6-7.85-4-7.85-10.7,0-8.55,5.35-12.9,12.65-12.9a27.49,27.49,0,0,1,10,2v19.2c0,1.55,0,4.55-.15,6.15-.6,7.5-4.1,12-11.35,12C68.8,50.74,65.75,47.89,65.75,43.59ZM79.1,17a9.59,9.59,0,0,0-3.1-.5c-3.85,0-5.6,3.3-5.6,7.55,0,3.5.45,7.25,4.6,7.25,2.5,0,4.1-1.6,4.1-4.35Zm-3.95,28.4c3.35,0,4-3.75,4-7.9v-2.7c-3.65,2-6.85,4.8-6.85,7.8A2.55,2.55,0,0,0,75.15,45.44Z"/><path d="M110.05,18.74c0,7.55-7.65,9.05-13.7,9.3a5.44,5.44,0,0,0,5.75,5,11.15,11.15,0,0,0,6.25-2.15l2,4.65a15.78,15.78,0,0,1-9.15,2.8c-8.5,0-11.9-5.3-11.9-12.8,0-7.35,4.25-14,12.45-14C106.8,11.44,110.05,14,110.05,18.74Zm-8.65-2.4c-3.4,0-5.2,3.35-5.35,6.8,3.25-.1,7.9-.9,7.9-4.35A2.34,2.34,0,0,0,101.4,16.34Z"/><path d="M119.9,37.54h-7V16.59l-.5-4.4h5.65l.65,3.6a6.52,6.52,0,0,1,6-4.35,9,9,0,0,1,4.15.9l-1.25,6a7.63,7.63,0,0,0-3.55-.9c-2.5,0-4.1,1.7-4.2,4.35Z"/><path class="cls-1" d="M130.6,2.79h7v10.4A8.66,8.66,0,0,1,143,11.44c6.2,0,10,4.25,10,12.25,0,9.75-4.45,14.6-12.25,14.6-3.6,0-8.05-.95-10.15-2.1Zm7,29.75a8.84,8.84,0,0,0,3.5.75c3.4,0,5-2.75,5-8.65,0-4-.8-8.1-4.9-8.1a3.32,3.32,0,0,0-3.6,3.2Z"/><path class="cls-1" d="M163.35,37.54H156.4V16.59l-.5-4.4h5.65l.65,3.6a6.52,6.52,0,0,1,6-4.35,9,9,0,0,1,4.15.9l-1.25,6a7.63,7.63,0,0,0-3.55-.9c-2.5,0-4.1,1.7-4.2,4.35Z"/><path class="cls-1" d="M192.5,18.74c0,7.55-7.65,9.05-13.7,9.3a5.44,5.44,0,0,0,5.75,5,11.15,11.15,0,0,0,6.25-2.15l2,4.65a15.78,15.78,0,0,1-9.15,2.8c-8.5,0-11.9-5.3-11.9-12.8,0-7.35,4.25-14,12.45-14C189.25,11.44,192.5,14,192.5,18.74Zm-8.65-2.4c-3.4,0-5.2,3.35-5.35,6.8,3.25-.1,7.9-.9,7.9-4.35A2.34,2.34,0,0,0,183.85,16.34Z"/><path class="cls-1" d="M216.45,32.49l.5,5H211L210.65,35l-.25-.05a7.66,7.66,0,0,1-6.7,3.3c-7.25,0-9.7-5.5-9.7-12.25,0-8.8,4.4-14.55,13.25-14.55a29.75,29.75,0,0,1,9.2,1.85Zm-6.9-15.35a8.29,8.29,0,0,0-3.15-.55c-4.1,0-5.5,4.1-5.5,9,0,4.05.85,7.6,4.55,7.6a3.86,3.86,0,0,0,4.1-3.75Z"/><path class="cls-1" d="M235.5,11.89V2.79h6.9v29.6l.5,5.15H237l-.4-2.6h-.25a7.49,7.49,0,0,1-6.55,3.35c-8.05,0-9.85-6.3-9.85-12.35,0-8.55,4.5-14.5,12.3-14.5A11.28,11.28,0,0,1,235.5,11.89Zm0,5.2a7.14,7.14,0,0,0-3-.55c-4.4,0-5.65,4.4-5.65,8.85,0,4.25,1,7.75,4.65,7.75a3.85,3.85,0,0,0,4-3.8Z"/></svg>